<svg t="1684916500439" class="icon" viewBox="0 0 1024 1024" version="1.1" xmlns="http://www.w3.org/2000/svg" p-id="3562" width="200" height="200"><path d="M512 128c247.424 0 448 156.33 448 349.227C960 670.08 759.424 826.41 512 826.41a576 576 0 0 1-73.685-4.694L250.24 944.725c-21.376 11.307-28.928 10.07-20.139-17.621l38.059-156.928C145.28 707.883 64 599.936 64 477.226 64 284.374 264.576 128 512 128z m252.032 343.893l62.72-60.757a20.139 20.139 0 0 0-27.99-28.928l-82.26 79.616v-65.792a20.139 20.139 0 0 0-40.278 0v109.099a20.096 20.096 0 0 0 0 9.472V576a20.139 20.139 0 0 0 40.277 0v-58.155l18.219-17.621 60.928 86.741a20.139 20.139 0 1 0 32.981-23.168l-64.597-91.946z m-126.208 82.091h-62.293V396.672a20.139 20.139 0 0 0-40.235 0v177.45c0 11.094 8.96 20.14 20.096 20.14h82.432a20.139 20.139 0 1 0 0-40.278z m-249.899-46.592l29.696-72.832 27.222 72.832h-56.918z m107.648 20.821l0.086-0.682a20.01 20.01 0 0 0-5.419-13.654l-44.63-119.466a29.44 29.44 0 0 0-26.751-20.224 29.696 29.696 0 0 0-27.862 19.072l-70.869 173.866a20.139 20.139 0 0 0 37.29 15.232l14.08-34.688h88.32l12.758 34.134a20.139 20.139 0 1 0 37.717-14.08l-14.72-39.51zM353.835 396.885a20.139 20.139 0 0 0-20.096-20.138H195.285a20.139 20.139 0 1 0 0 40.277h49.494v159.403a20.139 20.139 0 0 0 40.277 0V417.024h48.64a20.139 20.139 0 0 0 20.139-20.139z" fill="#F4EA2A" p-id="3563"></path></svg>