<svg t="1684916115406" class="icon" viewBox="0 0 1024 1024" version="1.1" xmlns="http://www.w3.org/2000/svg" p-id="2841" width="200" height="200"><path d="M803.986 656.018a14.885 14.885 0 0 0-12.58-15.433c-52.005-11.447-91.429-47.433-113.152-95.415-1.72-4.571-3.987-9.143-3.987-14.3 0-25.709 71.424-20.552 71.424-57.16 0-15.433-18.87-25.161-32.585-25.161-13.129 0-23.442 9.142-35.986 9.142-2.304 0-4.571-0.585-6.839-1.133 1.134-21.724 2.853-43.447 2.853-65.134 0-20.005-1.134-47.433-9.728-65.134-27.429-59.428-80.567-94.28-145.7-94.28-71.425 0-125.697 26.294-157.148 94.28-8.558 17.7-9.728 45.13-9.728 65.134 0 21.723 1.719 43.447 2.852 65.134-2.304 1.133-5.156 1.133-8.009 1.133-13.129 0-23.442-8.557-35.438-8.557-14.299 0-32 9.143-32 25.16 0 35.439 71.424 30.867 71.424 56.577 0 5.156-2.304 9.728-3.986 14.3-22.272 48.018-60.562 84.004-113.152 95.414a14.885 14.885 0 0 0-12.58 15.433c0 26.295 60.562 35.987 78.299 38.84 5.157 13.713 2.853 37.704 23.442 37.704 14.3 0 28.563-5.156 43.996-5.156 60.013 0 75.995 54.272 145.7 54.272 72.558 0 86.272-54.272 146.871-54.272 15.433 0 29.696 4.571 44.58 4.571 20.005 0 17.701-23.99 22.858-37.156 17.7-2.853 78.3-12.581 78.3-38.84zM950.857 512c0 242.286-196.571 438.857-438.857 438.857S73.143 754.286 73.143 512 269.714 73.143 512 73.143 950.857 269.714 950.857 512z" fill="#F4EA2A" p-id="2842"></path></svg>